HIERARCHY
ROOT pelvis
{
	OFFSET 0.000000 0.000000 0.000000
	CHANNELS 6 Xposition Yposition Zposition Zrotation Yrotation Xrotation
	JOINT left_hip
	{
		OFFSET 0.055779 -0.080629 -0.017705
		CHANNELS 3 Zrotation Yrotation Xrotation
		JOINT left_knee
		{
			OFFSET 0.039469 -0.359247 0.009008
			CHANNELS 3 Zrotation Yrotation Xrotation
			JOINT left_ankle
			{
				OFFSET -0.013809 -0.389899 -0.036404
				CHANNELS 3 Zrotation Yrotation Xrotation
				JOINT left_foot
				{
					OFFSET 0.037897 -0.056346 0.116500
					CHANNELS 3 Zrotation Yrotation Xrotation
					End Site
					{
						OFFSET 0.000000 0.000000 0.000000
					}
				}
			}
		}
	}
	JOINT right_hip
	{
		OFFSET -0.057787 -0.088871 -0.013401
		CHANNELS 3 Zrotation Yrotation Xrotation
		JOINT right_knee
		{
			OFFSET -0.039496 -0.356943 -0.002206
			CHANNELS 3 Zrotation Yrotation Xrotation
			JOINT right_ankle
			{
				OFFSET 0.017959 -0.383749 -0.033094
				CHANNELS 3 Zrotation Yrotation Xrotation
				JOINT right_foot
				{
					OFFSET -0.031235 -0.058281 0.124713
					CHANNELS 3 Zrotation Yrotation Xrotation
					End Site
					{
						OFFSET 0.000000 0.000000 0.000000
					}
				}
			}
		}
	}
	JOINT spine1
	{
		OFFSET 0.004196 0.122659 -0.034271
		CHANNELS 3 Zrotation Yrotation Xrotation
		JOINT spine2
		{
			OFFSET 0.005122 0.143143 0.029537
			CHANNELS 3 Zrotation Yrotation Xrotation
			JOINT spine3
			{
				OFFSET -0.001923 0.057757 0.004628
				CHANNELS 3 Zrotation Yrotation Xrotation
				JOINT neck
				{
					OFFSET -0.013781 0.203940 -0.035143
					CHANNELS 3 Zrotation Yrotation Xrotation
					JOINT head
					{
						OFFSET 0.009065 0.086539 0.049216
						CHANNELS 3 Zrotation Yrotation Xrotation
						End Site
						{
							OFFSET 0.000000 0.000000 0.000000
						}
					}
				}
				JOINT left_collar
				{
					OFFSET 0.070315 0.109742 -0.020357
					CHANNELS 3 Zrotation Yrotation Xrotation
					JOINT left_shoulder
					{
						OFFSET 0.122280 0.043464 -0.020451
						CHANNELS 3 Zrotation Yrotation Xrotation
						JOINT left_elbow
						{
							OFFSET 0.245347 -0.013316 -0.020298
							CHANNELS 3 Zrotation Yrotation Xrotation
							JOINT left_wrist
							{
								OFFSET 0.251466 0.010925 -0.008411
								CHANNELS 3 Zrotation Yrotation Xrotation
								End Site
								{
									OFFSET 0.000000 0.000000 0.000000
								}
							}
						}
					}
				}
				JOINT right_collar
				{
					OFFSET -0.083386 0.108780 -0.024575
					CHANNELS 3 Zrotation Yrotation Xrotation
					JOINT right_shoulder
					{
						OFFSET -0.112806 0.044731 -0.008805
						CHANNELS 3 Zrotation Yrotation Xrotation
						JOINT right_elbow
						{
							OFFSET -0.248827 -0.010357 -0.028458
							CHANNELS 3 Zrotation Yrotation Xrotation
							JOINT right_wrist
							{
								OFFSET -0.255561 0.006434 -0.006231
								CHANNELS 3 Zrotation Yrotation Xrotation
								End Site
								{
									OFFSET 0.000000 0.000000 0.000000
								}
							}
						}
					}
				}
			}
		}
	}
}
MOTION
Frames: 6
Frame Time: 0.033333
-0.164532 0.876330 -1.986286 0.000000 0.000000 0.000000 -1.808896 0.171592 -6.943181 -0.014803 -0.091321 7.012929 0.487049 -0.053762 -0.074482 0.000000 0.000000 0.000000 -0.870047 -0.002613 -1.924090 -0.006175 -0.072376 -2.078622 -0.443701 0.131239 3.997931 0.000000 0.000000 0.000000 -1.744347 -0.047629 -0.003245 0.000000 0.000000 0.000000 -0.481563 -0.083395 0.001209 0.000000 0.000000 0.000000 0.000000 0.000000 0.000000 0.000000 0.000000 0.000000 0.000000 0.000000 0.000000 0.000000 0.000000 0.000000 0.000000 0.000000 0.000000 0.000000 0.000000 0.000000 0.000000 0.000000 0.000000 0.000000 0.000000 0.000000 0.000000 0.000000 0.000000
-0.173735 0.856147 -1.991964 -2.681900 -0.691300 3.915900 11.182381 -2.575601 -24.012783 -0.145571 -0.526197 39.578697 1.250678 7.456981 -13.670937 0.000000 0.000000 0.000000 -6.530149 -0.676011 -23.443829 0.068461 0.500298 38.965267 -1.125661 -2.411135 -17.698286 0.000000 0.000000 0.000000 -2.103202 5.692204 4.005432 0.000000 0.000000 0.000000 1.327613 1.609025 -7.203765 -6.777200 -3.939898 11.324216 11.178164 -5.060096 -24.663692 0.000000 0.000000 0.000000 -80.629763 -7.612464 33.623647 14.231469 -21.605979 -5.901081 -1.090099 -4.041358 30.179918 0.000000 0.000000 0.000000 73.589660 1.099999 29.899871 -18.652188 26.872224 -8.524572 0.017957 0.537463 3.827199
-0.173916 0.855980 -1.992538 -2.689500 -0.999700 3.908200 10.862934 -1.226672 -24.025053 -0.151194 -0.530654 39.640136 1.306532 8.164173 -13.447102 0.000000 0.000000 0.000000 -6.551418 -1.148081 -23.643335 0.059083 0.492092 39.109718 -0.991209 -1.248326 -17.508890 0.000000 0.000000 0.000000 -1.990683 5.702803 4.168548 0.000000 0.000000 0.000000 1.280883 1.608041 -7.279302 -6.837198 -3.900300 11.517740 11.250117 -4.976914 -24.724028 0.000000 0.000000 0.000000 -80.780357 -7.678330 33.343562 14.279662 -21.667201 -5.927433 -1.065237 -3.998405 29.825218 0.000000 0.000000 0.000000 73.539497 1.231701 29.609923 -18.411167 26.603295 -8.374279 0.017663 0.533046 3.795705
-0.174333 0.855813 -1.993018 -2.611100 -1.168200 3.725000 10.531752 -0.113080 -23.875449 -0.155283 -0.535171 39.672273 1.339501 8.611600 -13.442443 0.000000 0.000000 0.000000 -6.616208 -1.489456 -23.667685 0.047527 0.481995 39.274158 -0.862873 -0.102980 -16.949728 0.000000 0.000000 0.000000 -2.038436 5.651210 4.573003 0.000000 0.000000 0.000000 1.314104 1.591976 -7.358636 -6.810401 -3.861200 11.507476 11.223955 -4.906101 -24.691478 0.000000 0.000000 0.000000 -80.884313 -7.913897 33.482897 14.265517 -21.649332 -5.920117 -1.055604 -3.981589 29.686705 0.000000 0.000000 0.000000 73.490224 1.372011 29.246197 -18.147468 26.306936 -8.210744 0.018842 0.550529 3.920391
-0.175116 0.855572 -1.993592 -2.670000 -1.195100 3.549900 10.558214 0.639763 -23.779374 -0.159458 -0.540189 39.752518 1.322871 8.428026 -13.733975 0.000000 0.000000 0.000000 -6.514794 -1.587706 -23.676845 0.040452 0.476605 39.470932 -0.783928 0.620636 -16.607703 0.000000 0.000000 0.000000 -1.945227 5.539167 4.954392 0.000000 0.000000 0.000000 1.299649 1.559353 -7.474504 -6.795097 -3.826100 11.622064 11.292856 -4.826223 -24.788079 0.000000 0.000000 0.000000 -80.918981 -8.141711 33.671370 14.210249 -21.579006 -5.889141 -1.068174 -4.003507 29.867359 0.000000 0.000000 0.000000 73.499760 1.459580 28.902063 -17.903496 26.030305 -8.060333 0.018405 0.544100 3.874545
-0.175654 0.854966 -1.993801 -2.779200 -1.152700 3.267000 10.675908 1.420180 -23.675117 -0.160421 -0.542655 39.951253 1.283094 7.941149 -14.064102 0.000000 0.000000 0.000000 -6.380705 -2.055274 -23.527447 0.038142 0.476177 39.721844 -0.730716 1.113848 -16.766662 0.000000 0.000000 0.000000 -1.762883 5.346366 5.373857 0.000000 0.000000 0.000000 1.307415 1.505173 -7.569927 -6.838201 -3.787501 11.843040 11.345758 -4.745367 -25.006475 0.000000 0.000000 0.000000 -80.994993 -8.204621 33.804357 14.256207 -21.637367 -5.914856 -1.061904 -3.992606 29.777433 0.000000 0.000000 0.000000 73.489489 1.490280 28.629879 -17.711061 25.810889 -7.942336 0.017234 0.526534 3.749259
